<svg xmlns="http://www.w3.org/2000/svg" viewBox="0 0 512 512" role="img" aria-label="Loteo">
  <defs>
    <linearGradient id="bg" x1="72" x2="440" y1="56" y2="456" gradientUnits="userSpaceOnUse">
      <stop offset="0" stop-color="#0f172a" />
      <stop offset="1" stop-color="#111827" />
    </linearGradient>
    <linearGradient id="mark" x1="162" x2="362" y1="144" y2="365" gradientUnits="userSpaceOnUse">
      <stop offset="0" stop-color="#f8fafc" />
      <stop offset="1" stop-color="#cbd5e1" />
    </linearGradient>
    <linearGradient id="accent" x1="142" x2="376" y1="330" y2="178" gradientUnits="userSpaceOnUse">
      <stop offset="0" stop-color="#22c55e" />
      <stop offset="1" stop-color="#38bdf8" />
    </linearGradient>
  </defs>

  <rect width="512" height="512" rx="104" fill="url(#bg)" />
  <path
    d="M109 338c19-72 76-128 149-148 50-14 99-8 141 13"
    fill="none"
    stroke="url(#accent)"
    stroke-linecap="round"
    stroke-width="28"
  />
  <path
    d="M138 341h236c21 0 38 17 38 38v19c0 12-10 22-22 22H122c-12 0-22-10-22-22v-19c0-21 17-38 38-38Z"
    fill="#020617"
    opacity=".5"
  />
  <path
    d="M159 216c8-29 24-52 48-67h98c24 15 40 38 48 67l22 86H137l22-86Z"
    fill="url(#mark)"
  />
  <path d="M196 178h120c12 13 21 30 26 51H170c5-21 14-38 26-51Z" fill="#0f172a" />
  <path
    d="M128 286h256c24 0 44 20 44 44v41H84v-41c0-24 20-44 44-44Z"
    fill="#f8fafc"
  />
  <path d="M139 292h234l-21-72c-5-18-15-33-29-44H189c-14 11-24 26-29 44l-21 72Z" fill="none" stroke="#0f172a" stroke-linejoin="round" stroke-width="16" />
  <circle cx="158" cy="365" r="36" fill="#0f172a" />
  <circle cx="354" cy="365" r="36" fill="#0f172a" />
  <circle cx="158" cy="365" r="16" fill="#94a3b8" />
  <circle cx="354" cy="365" r="16" fill="#94a3b8" />
  <path d="M217 325h78c7 0 13 6 13 13v20c0 7-6 13-13 13h-78c-7 0-13-6-13-13v-20c0-7 6-13 13-13Z" fill="#0f172a" />
  <path d="M224 347h64" stroke="#38bdf8" stroke-linecap="round" stroke-width="10" />
  <path d="M118 322h55M339 322h55" stroke="#fbbf24" stroke-linecap="round" stroke-width="16" />
  <path
    d="M321 112h57c12 0 22 10 22 22v78c0 12-10 22-22 22h-57c-12 0-22-10-22-22v-78c0-12 10-22 22-22Z"
    fill="#f8fafc"
  />
  <path d="M323 145h53M323 173h43M323 201h31" stroke="#0f172a" stroke-linecap="round" stroke-width="12" />
  <path d="M383 107l25 25" stroke="#22c55e" stroke-linecap="round" stroke-width="18" />
</svg>
